<?xml version="1.0" encoding="utf-8"?>
<!-- Generator: Adobe Illustrator 19.0.0, SVG Export Plug-In . SVG Version: 6.00 Build 0)  -->
<svg version="1.1" id="Слой_1" xmlns="http://www.w3.org/2000/svg" xmlns:xlink="http://www.w3.org/1999/xlink" x="0px" y="0px"
	 viewBox="0 0 576 576" style="enable-background:new 0 0 576 576;" xml:space="preserve">
<path id="XMLID_15_" d="M288,17.5C138.8,17.5,17.5,138.8,17.5,288c0,149.2,121.3,270.5,270.5,270.5S558.5,437.2,558.5,288
	C558.5,138.8,437.2,17.5,288,17.5z M26.8,300.9c5.8-6.2,8.1-3.6,8.1-3.6l2.8-8.9c0,0,1,10.4,2.7,11.5c1.7,1.1,19.1-0.9,20.7-3.3
	c1.5-2.4,3.1-10.7,3.1-10.7l2.7,11.5c0,0,12.9,1.7,20,9.9c-25-2.9-48.2,2.1-54.8,34.4C29.2,328.5,27.5,314.8,26.8,300.9z
	 M76.7,428.1c-0.3,3.1-0.7,7.4-0.8,12.4c-3.1-4.1-6.1-8.3-8.8-12.6C59,415.1,52,401.6,46.1,387.5c-0.1-2.8-0.2-5.7,0-8.1l-3.6-1.1
	c-0.1-0.3-0.2-0.6-0.3-0.9L47,373c0,0,4-5.8,2-20.2l-7.9-7l10.1,2.3l2.4-3.1l-4.6-8.7l8.6,1.6c0,0,4.8-4.1,13.3-7.8
	c4.4-1.9,11.1-7.2,16.5-11.8c-10.1,15.1-12.8,29.1-10.7,33.5c0.4,0.7,0.8,1.1,1.3,1.3c-1.3,3.8-7.2,22.3-7.1,27.8
	c0.1,4.1,1.9,4.8,2.9,5c-0.7,4.1-5.5,33.3-0.3,38.4c0.3,0.3,0.7,0.5,1.1,0.6C76,425.3,76.9,426.7,76.7,428.1z M125.7,380.7
	c-5.5,2.3-6,7.8-14.4,8.4c0,0,10.5,10.6,17.1,8.7c0.7-0.2,1.3-0.3,1.9-0.4c1.2,3.1,2.3,5.2,2.3,5.2c0.5-1.7,1-3.4,1.5-5
	c1.2,0.6,1.3,1.5,1.3,1.5l5-4.4c0,0-3.6,7.2-3.2,8.7c0.4,1.5,10.4,8.6,12.2,7.8c1.8-0.8,5.9-5.4,5.9-5.4l-3.2,8.7
	c0,0,0.8,0.9,1.8,2.6c-18.6-6-40.7,6.9-47.1,28c-1.5-11.3-7.3-25.1-7.9-27.1c3.7-3.9-0.9-29-2.8-35.2c3.1-3.7,0.4-25.7-0.9-31
	c2.3-2.5,2.9-9.4,1.8-21.1c3.6,7.3,7.9,14.2,9.5,14.7c3.1,0.9,7.5-5.8,7.5-5.8l0.6,8.7c1.4,10.5,8.1,19.5,8.1,19.5l8,0.3l-5.1,7.9
	C125.4,377.5,125.5,379,125.7,380.7z M116.1,478.5c-1.9-4.1-1.8-8.5-2.3-12.9c1.3-1.4,3.7-2.8,4-4.6c1.5-8.2-0.8-15.7-0.8-15.7
	s1.9,3.6,7.4,0.4c5.5-3.2,12.9-6.7,12.6-12.4l4.8,2.4c0,0,3.6-0.2,8-0.9c-9.4,10.7-13.3,28,4,63.3
	C140.5,493.1,127.9,486.5,116.1,478.5z M168.5,502.8c-3-0.8-5.9-1.7-8.8-2.7c0.1-4.7,0-10.5-1.4-14.6l-4.8-5l5.1-2.2
	c0,0,2.5-8.7,1.3-17.3l-1.3-7c0,0,4.1,4.2,6,2.8c0.9-0.7,2.1-6.2,2.9-12.3c0.4,7.7,1.1,14.8,2.5,16.6c-0.6,4.4-2.2,16.9,0.1,19.5
	C169.5,485.2,168.3,495.8,168.5,502.8z M300,549.3c1.6-3.4-4.2-7.3-17.9-7.5c-18.5-0.2-27.9-0.7-25.7-3.8c4.2-5.9-4-8.1-24.4-12.7
	c-5.8-1.3,4.1-2.5-3.7-7c-4-2.3-20.1-5.6-40.8-10.6c1.6-7.7-1.2-26.5-1.7-29.8c2.1-4.1-4.7-20.9-5.9-24c1.1-2.4-0.7-7.5-7.1-20.3
	c8.9,1.5,15.5,7.6,15.5,7.6l3.5-4.1l0,5.9c2.1,5.8,6.7,8.1,6.7,8.1l5.9-0.6l-1.8,5.2c3.4,5.8,1.3,4.8,1.1,12.2
	c-0.1,7.4,7.4,14.9,7.4,14.9c6.8-19.2,2.6-41.9-9.2-53.1c-8.1-7.6-18.2-10.4-26.9-11.4l0.7-4.3l4.8,2.2c7.6-3.3,14.1-0.6,16.5-2.7
	c2.4-2.1,5.9-7.4,5.9-7.4s0.1,1.6,0.7,6.5c0.6,4.9,1.5,5.8,10.9,6.1c9.5,0.4,16.1,3.4,16.1,3.4c-2.4-19.7-21.7-30.3-35-30.7
	c-10.3-0.3-23.8,3.3-30.8,19.6c-2.3-15-10.2-27.3-24.2-30.4c-0.7-0.2-1.4-0.3-2-0.4c7.2-35.6,0.4-53.1-11.6-62.5
	c15.4-3.1,29.5,2.4,29.5,2.4l4-6.6l2,7.4c5.2,6.4,13.1,7.3,13.1,7.3l8.8-3.3l-0.9,7.3c7.3,5.8,3.6,5.5,6,14.8
	c2.4,9.3,16.6,15.4,16.6,15.4c3.7-27-10.7-53.6-32.8-62.5c-14.7-5.9-30.9-5.2-44.4-2.9c6.3-7.7,11.6-11.5,11.6-11.5l0.6-11.8
	l9.7,9.2l4.7-1.9l0.1-14l6.5,12.9c14.7,4.7,26.3,4.7,26.3,4.7l8-5.3l0.4,6.6c11.1,2.2,28,10,28,10s-10.2-20.1-49.1-38.3
	c-31.2-14.6-48.3-6.6-68.2,31.7c0.9-5.9,1.8-11.3,2.3-13.5c1.5-6.2,4.3-11.8,4.3-11.8l-5.1-3.5l7.5-1.1c3-8,6.1-10.3,6.1-10.3
	l-9.5-6.5l11.1,2.4c0,0,0.9-6.4,8.2-13.1c7.3-6.7,9.4-27.2,9.4-27.2s-25.7,10.2-45.8,29.1C78,250.4,80.9,269.7,90.5,296
	c-13.7-21.6-37.9-34-63.1-21.4c-0.2,0.1-0.4,0.2-0.6,0.3c7-138.8,124.4-250.3,264.8-248.4C434.2,28.4,549.5,145,549.5,288
	C549.5,428.2,438.6,543,300,549.3z"/>
</svg>
